<mxfile host="app.diagrams.net" modified="2021-12-17T14:29:18.406Z" agent="5.0 (Windows NT 10.0; Win64; x64) AppleWebKit/537.36 (KHTML, like Gecko) Chrome/96.0.4664.110 Safari/537.36 Edg/96.0.1054.57" etag="uPQHQEvwcSQaDdtfopyu" version="15.9.6" type="github">
  <diagram id="RBOIBIMvq0Yk8zf17Fi_" name="Opcodes常量">
    <mxGraphModel dx="1038" dy="547" grid="1" gridSize="10" guides="1" tooltips="1" connect="1" arrows="1" fold="1" page="1" pageScale="1" pageWidth="827" pageHeight="1169" math="0" shadow="0">
      <root>
        <mxCell id="0" />
        <mxCell id="1" parent="0" />
        <mxCell id="Vj3gGlGifSG_-Ti_eutn-12" value="&lt;h2 class=&quot;md-end-block md-heading md-focus&quot; style=&quot;box-sizing: border-box ; font-size: 1.75em ; margin-top: 1rem ; margin-bottom: 1rem ; position: relative ; line-height: 1.225 ; cursor: text ; border-bottom: 1px solid rgb(238 , 238 , 238) ; color: rgb(51 , 51 , 51) ; font-family: &amp;#34;open sans&amp;#34; , &amp;#34;clear sans&amp;#34; , &amp;#34;helvetica neue&amp;#34; , &amp;#34;helvetica&amp;#34; , &amp;#34;arial&amp;#34; , &amp;#34;segoe ui emoji&amp;#34; , sans-serif&quot;&gt;&lt;span class=&quot;md-plain md-expand&quot; style=&quot;box-sizing: border-box&quot;&gt;ClassVisitor&lt;/span&gt;&lt;/h2&gt;" style="ellipse;whiteSpace=wrap;html=1;align=center;newEdgeStyle={&quot;edgeStyle&quot;:&quot;entityRelationEdgeStyle&quot;,&quot;startArrow&quot;:&quot;none&quot;,&quot;endArrow&quot;:&quot;none&quot;,&quot;segment&quot;:10,&quot;curved&quot;:1};treeFolding=1;treeMoving=1;" vertex="1" parent="1">
          <mxGeometry x="60" y="330" width="170" height="70" as="geometry" />
        </mxCell>
      </root>
    </mxGraphModel>
  </diagram>
</mxfile>
